<svg width="57" height="57" viewBox="0 0 57 57" fill="none" xmlns="http://www.w3.org/2000/svg">
<path d="M38 8.15576C38 10.4989 38 12.6013 38 14.8481C36.4898 14.8481 35.0432 14.8 33.5965 14.8642C31.6094 14.9444 30.7033 15.9073 30.6715 17.8974C30.6397 19.5825 30.6715 21.2516 30.6715 23.033C33.0719 23.033 35.4247 23.033 37.8092 23.033C37.4913 25.4885 37.1893 27.8477 36.8872 30.2871C34.8365 30.2871 32.8176 30.2871 30.7033 30.2871C30.7033 36.5622 30.7033 42.741 30.7033 49C28.1756 49 25.7434 49 23.2157 49C23.2157 42.8212 23.2157 36.6264 23.2157 30.3513C21.1173 30.3513 19.0984 30.3513 17 30.3513C17 27.8958 17 25.5366 17 23.0812C19.003 23.0812 21.022 23.0812 23.184 23.0812C23.184 22.6799 23.184 22.375 23.184 22.0701C23.2316 19.9677 23.1045 17.8332 23.3588 15.7468C23.8993 11.1408 26.9516 8.28415 31.5776 8.04341C33.676 7.91502 35.8221 8.10761 38 8.15576Z" fill="#EB9916"/>
<circle cx="28.5" cy="28.5" r="27" stroke="#EB9916" stroke-width="3"/>
</svg>
