<svg width="57" height="57" viewBox="0 0 57 57" fill="none" xmlns="http://www.w3.org/2000/svg">
<circle cx="28.5" cy="28.5" r="27" stroke="#EB9916" stroke-width="3"/>
<path d="M44.4875 29.0562C44.4875 31.6177 44.4875 34.1792 44.4875 36.7407C44.475 41.4889 41.0014 44.9875 36.2532 44.9875C31.0927 45 25.9323 44.9875 20.7593 44.9875C15.9861 44.9875 12.5125 41.5014 12.5 36.7032C12.5 31.5553 12.5 26.4198 12.5 21.2718C12.5125 16.4986 15.9861 13.0125 20.7718 13C25.9198 13 31.0553 13 36.2032 13C41.0264 13 44.5 16.4861 44.5 21.3093C44.5 23.8957 44.4875 26.4822 44.4875 29.0562ZM15.1615 28.9438C15.1615 31.5053 15.1615 34.0668 15.1615 36.6283C15.174 40.0769 17.4231 42.326 20.8842 42.326C25.9697 42.326 31.0428 42.326 36.1283 42.326C39.5769 42.326 41.826 40.0644 41.826 36.6033C41.826 31.5178 41.826 26.4447 41.826 21.3592C41.826 17.9106 39.5644 15.6615 36.1033 15.6615C31.0178 15.6615 25.9447 15.6615 20.8592 15.6615C17.4106 15.6615 15.1615 17.9231 15.1615 21.3842C15.1615 23.9082 15.1615 26.4198 15.1615 28.9438Z" fill="#EB9916"/>
<path d="M28.5187 20.9969C32.917 21.0094 36.4906 24.6079 36.4906 29.0062C36.4781 33.4295 32.8545 37.0281 28.4312 36.9906C24.033 36.9531 20.4718 33.3545 20.4968 28.9562C20.5218 24.558 24.1204 20.9844 28.5187 20.9969ZM28.4937 34.3291C31.4051 34.3291 33.8166 31.9426 33.8291 29.0187C33.8541 26.1074 31.4551 23.6958 28.5312 23.6583C25.6073 23.6208 23.1458 26.0699 23.1583 29.0062C23.1708 31.9301 25.5699 34.3291 28.4937 34.3291Z" fill="#EB9916"/>
<path d="M37.1654 18.3479C38.2775 18.3479 39.1396 19.2101 39.1396 20.3222C39.1396 21.4217 38.2775 22.3089 37.1779 22.3339C36.0783 22.3464 35.1412 21.4092 35.1537 20.3097C35.1787 19.2226 36.0658 18.3479 37.1654 18.3479Z" fill="#EB9916"/>
</svg>
