<svg width="149" height="195" viewBox="0 0 149 195" fill="none" xmlns="http://www.w3.org/2000/svg">
<path d="M126.133 51.4802C125.893 51.5524 125.641 51.6005 125.412 51.6846C120.621 53.5001 115.638 54.3898 110.547 54.7505C106.957 55.003 103.367 55.3517 99.7764 55.5922C97.7472 55.7244 95.6939 55.7725 93.6526 55.7845C89.0898 55.8206 84.5269 55.9288 79.964 55.7966C76.0856 55.6883 72.2192 55.3277 68.3528 55.003C64.9427 54.7145 61.5445 54.3658 58.1464 53.933C53.7997 53.3799 49.465 52.7427 45.1423 52.0814C40.6274 51.3961 36.1486 50.5665 31.7539 49.3281C30.4691 48.9674 29.2083 48.4865 27.9355 48.0657C27.8274 48.0296 27.7194 48.0176 27.4672 47.9574C27.9715 48.8351 28.3918 49.5806 28.8361 50.338C34.8999 60.714 41.3719 70.8375 48.0001 80.8529C48.8166 82.0912 49.6331 83.3296 50.4376 84.568C50.5937 84.7965 50.7738 85.0489 50.8218 85.3134C50.8698 85.5659 50.8458 85.9988 50.7017 86.0829C50.4856 86.2152 50.0653 86.2032 49.8492 86.0709C49.549 85.8785 49.3089 85.5299 49.1168 85.2173C45.4184 79.4101 41.6361 73.651 38.0458 67.7716C31.1055 56.3977 24.2372 44.9637 17.4169 33.5056C14.4751 28.552 11.7494 23.4662 8.96364 18.4165C8.59141 17.7432 8.32724 16.9857 8.17114 16.2283C7.81092 14.4849 8.33925 13.4028 9.8642 12.5131C12.4938 10.9862 15.2556 9.78386 18.1854 8.99033C21.3554 8.13668 24.5494 7.41529 27.7314 6.62176C31.2015 5.7561 34.6717 4.8784 38.1299 3.97667C42.2124 2.9066 46.391 2.48579 50.5697 2.02891C54.4241 1.6081 58.2905 1.18729 62.1569 0.898732C64.8706 0.694338 67.5963 0.634223 70.31 0.682315C73.1198 0.730408 75.9055 0.622199 78.6913 0.297574C82.0173 -0.0991912 85.3794 -0.0991912 88.6935 0.297574C94.7453 1.01896 100.785 1.86059 106.825 2.71423C111.532 3.38753 116.239 4.08487 120.85 5.31124C126.289 6.76604 131.548 8.72582 136.808 10.7096C139.509 11.7316 142.007 13.0902 144.36 14.7374C145.501 15.5309 146.498 16.5048 146.474 17.9716C146.45 18.9575 146.209 20.0276 145.765 20.9053C143.832 24.8008 141.863 28.6723 139.785 32.4836C134.058 43.0279 127.37 52.9471 120.201 62.5536C116.851 67.0502 113.597 71.6191 110.283 76.1277C110.043 76.4524 109.683 76.7289 109.322 76.8972C108.83 77.1257 108.518 76.8371 108.674 76.3081C108.794 75.8993 108.998 75.4905 109.25 75.1298C112.564 70.4528 115.854 65.7638 119.193 61.1228C121.378 58.081 123.647 55.1112 125.881 52.1054C126.001 51.9491 126.097 51.7808 126.205 51.6125C126.181 51.5644 126.157 51.5283 126.133 51.4802ZM143.568 22.7809C143.34 22.8651 143.256 22.8771 143.196 22.9252C140.518 24.7768 137.48 25.6184 134.322 25.9911C131.428 26.3278 128.51 26.4841 125.593 26.6764C124.608 26.7365 123.695 26.3999 122.915 25.7867C122.759 25.6665 122.639 25.438 122.639 25.2457C122.639 25.1615 122.927 25.0052 123.107 24.9812C123.539 24.909 123.984 24.909 124.416 24.8729C126.781 24.6686 129.171 24.5483 131.524 24.2357C134.37 23.851 137.144 23.1176 139.653 21.6628C140.77 21.0135 141.803 20.208 142.787 19.3663C143.592 18.681 143.496 17.9596 142.655 17.3104C142.367 17.094 142.079 16.8655 141.755 16.7212C138.561 15.1943 135.439 13.475 132.149 12.2125C124.92 9.44721 117.415 7.64373 109.791 6.32118C105.42 5.56372 101.025 4.93852 96.6305 4.28927C93.2083 3.78429 89.7862 3.2673 86.304 3.32741C83.2781 3.37551 80.2642 3.30337 77.2383 3.33944C73.2759 3.38753 69.3134 3.36348 65.3629 3.61597C60.4398 3.9406 55.5288 4.51771 50.6057 4.98661C46.9674 5.33528 43.3171 5.708 39.7629 6.60974C34.1674 8.02848 28.5599 9.42316 22.9884 10.9501C20.1426 11.7316 17.3689 12.7897 14.5591 13.7275C13.8747 13.9559 13.3104 14.3406 12.9982 15.038C12.722 15.6632 12.806 15.9037 13.3344 16.3124C14.2469 17.0098 15.3396 17.1781 16.3963 17.4667C21.0792 18.7291 25.7982 19.7391 30.6132 20.3522C34.0593 20.7971 37.5175 21.254 40.9637 21.7109C45.0222 22.2519 49.0927 22.805 53.1513 23.334C54.1239 23.4662 55.1085 23.5023 56.0691 23.6706C56.3453 23.7187 56.5734 24.0914 56.8256 24.3199C56.5614 24.5243 56.3093 24.8489 56.0211 24.897C55.3126 24.9932 54.5802 25.0172 53.8717 24.9571C48.6124 24.5363 43.3411 24.1516 38.0939 23.6225C31.5137 22.9613 24.9336 22.1798 18.3535 21.4584C15.928 21.1939 13.5865 20.6167 11.4972 19.2701C11.3651 19.186 11.197 19.174 10.9449 19.1018C11.0289 19.3062 11.0529 19.3784 11.089 19.4505C15.4117 26.989 19.7344 34.5276 24.0331 42.0661C24.2972 42.523 24.5254 42.4508 24.8856 42.2464C28.776 40.1424 32.9426 38.8559 37.2773 38.0624C40.5194 37.4732 43.7614 36.8721 47.0154 36.295C47.5438 36.1988 47.7839 35.9583 47.7719 35.4173C47.7599 34.6358 47.7959 33.8543 47.7839 33.0728C47.7719 32.0267 48.0961 31.654 49.1408 31.6179C49.9213 31.5939 50.7017 31.6179 51.4822 31.6179C52.2627 31.6179 52.4548 31.4256 52.4428 30.6681C52.4308 29.8265 52.3588 28.9849 52.3468 28.1433C52.3228 26.8808 52.719 26.5201 53.9678 26.5923C55.1805 26.6644 56.4053 26.7606 57.6181 26.7967C58.5907 26.8327 58.9629 26.4841 59.059 25.5102C59.143 24.6084 59.2031 23.7067 59.3231 22.817C59.4552 21.783 59.6353 20.761 59.8275 19.739C59.9235 19.2461 60.2717 19.1018 60.74 19.2461C60.9321 19.3062 61.1363 19.3543 61.3044 19.4505C62.5291 20.1478 63.838 20.22 65.2068 20.0396C66.0594 19.9314 66.5997 19.4745 66.8639 18.681C67.2361 17.5629 67.164 16.4808 66.5517 15.4468C66.4436 15.2785 66.4316 15.05 66.3715 14.8456C66.5757 14.7975 66.7918 14.6893 66.9959 14.7254C67.9085 14.8576 68.8331 14.9418 69.7096 15.1943C71.4627 15.6993 73.0717 15.5309 74.7648 14.8095C77.9828 13.4509 81.1888 13.4389 84.1787 15.567C84.683 15.9277 85.2233 15.9157 85.7757 15.6872C86.8323 15.2664 87.889 14.7975 88.9697 14.4849C89.6781 14.2805 90.4946 14.1242 91.1911 14.2926C91.9836 14.4849 92.752 14.9779 93.4245 15.4828C94.5532 16.3365 95.5858 17.3344 96.6905 18.2121C97.7952 19.0898 99.08 19.5226 100.521 19.5948C101.337 19.6429 102.202 19.8473 102.934 20.1959C107.005 22.1677 111.088 24.0914 115.314 25.7025C117.932 26.7005 120.465 27.8186 123.335 28.011C125.244 28.1433 126.697 29.2855 127.346 31.1851C127.994 33.0607 127.994 34.9363 126.613 36.5114C126.061 37.1366 125.22 37.5574 124.44 37.9421C123.767 38.2668 123.263 38.6756 123.023 39.3849C122.807 40.0101 122.567 40.6233 122.315 41.2365C122.206 41.489 122.038 41.7174 121.846 42.0541C121.762 41.8376 121.714 41.7655 121.702 41.6934C121.582 40.9479 121.45 40.1905 121.342 39.445C121.258 38.892 120.922 38.6756 120.393 38.6515C119.901 38.6275 119.529 38.7477 119.397 39.2767C119.265 39.7937 119.097 40.3107 118.928 40.8277C118.82 41.1523 118.676 41.4649 118.556 41.7775C118.496 41.7775 118.424 41.7655 118.364 41.7655C118.22 41.4289 118.04 41.0922 117.944 40.7315C117.848 40.3468 117.824 39.938 117.824 39.5412C117.812 38.9521 117.5 38.7477 116.959 38.7116C116.179 38.6635 115.554 38.9521 115.002 39.4691C114.137 40.2987 113.285 41.1403 112.432 41.9699C112.408 41.994 112.432 42.042 112.432 42.1503C112.805 42.2705 113.201 42.4027 113.609 42.5109C116.515 43.3165 119.469 43.9898 122.327 44.9517C124.392 45.649 126.349 46.7191 128.342 47.6448C128.727 47.8252 128.931 47.7771 129.159 47.4164C130.035 45.9856 130.924 44.5549 131.836 43.1482C133.554 40.4911 135.415 37.9181 136.988 35.1888C139.221 31.3053 141.25 27.3016 143.352 23.346C143.448 23.2017 143.484 23.0574 143.568 22.7809ZM125.04 30.9687C125.04 31.642 125.1 32.1349 125.016 32.6159C124.968 32.8924 124.716 33.1449 124.56 33.3974C124.32 33.217 123.96 33.0848 123.876 32.8443C123.635 32.171 123.455 31.4737 123.335 30.7643C123.179 29.7303 123.203 29.7303 122.194 29.4778C122.158 29.4658 122.11 29.4658 122.074 29.4538C119.024 28.9248 116.155 27.9389 113.357 26.5562C110.511 25.1495 107.473 24.1516 104.519 22.9733C102.574 22.1918 100.653 21.3261 98.6718 20.6648C96.7506 20.0276 95.0455 19.1379 93.6286 17.6711C91.5273 15.5069 90.4706 15.3145 87.6969 16.4567C86.1599 17.0819 86.1239 17.2382 87.1085 18.6089C87.7329 19.4745 88.3693 20.3162 88.9697 21.1939C89.0657 21.3381 89.0537 21.5546 89.0898 21.7349C88.8856 21.7589 88.6455 21.8792 88.4894 21.807C88.1772 21.6507 87.877 21.4223 87.6248 21.1818C86.316 19.9194 85.1273 18.5127 83.7104 17.3825C81.3809 15.5069 78.7033 14.9899 75.8815 16.1441C74.6687 16.6371 73.468 17.2503 72.4113 18.0197C70.9104 19.1138 69.5655 20.4244 68.1487 21.6147C65.2669 24.0433 62.301 26.3638 59.5273 28.9007C54.7363 33.2651 50.0653 37.7498 45.3584 42.1743C44.782 42.7153 44.2537 43.3285 43.6413 43.9658C43.9655 44.1221 44.2657 44.3144 44.5899 44.4106C46.307 44.8915 48.0001 45.4686 49.7532 45.7692C52.719 46.2862 55.7209 46.671 58.7228 47.0196C61.8567 47.3803 65.0147 47.6448 68.1607 47.9334C68.4609 47.9574 68.773 47.9334 69.0852 47.9334C68.9171 47.6689 68.725 47.5246 68.5089 47.4044C67.4282 46.8032 66.3355 46.2141 65.2669 45.5889C65.1108 45.4927 65.0747 45.2041 64.9787 45.0118C65.1828 44.9276 65.3989 44.7352 65.567 44.7833C66.2875 44.9396 67.0079 45.12 67.6924 45.3845C69.6736 46.1419 71.6188 46.9715 73.6001 47.741C74.7648 48.1979 75.9655 48.1137 77.1903 47.7891C76.9982 47.5487 76.7821 47.3563 76.5419 47.2361C75.137 46.5988 73.7322 45.9736 72.3273 45.3364C71.5468 44.9877 70.7423 44.6511 69.9858 44.2543C69.5535 44.0259 69.1213 43.6051 69.3374 43.1001C69.5655 42.5711 70.0939 42.9197 70.5021 43.0279C70.5261 43.0279 70.5382 43.04 70.5622 43.052C73.6121 44.2543 76.662 45.4566 79.7239 46.6469C80.0601 46.7792 80.4083 46.8874 80.7565 46.9355C81.2368 46.9956 81.7532 46.5748 81.8492 46.0818C81.9453 45.5769 81.465 45.5889 81.2008 45.4566C79.1716 44.4587 77.1303 43.4968 75.101 42.4989C74.7048 42.3066 74.3325 42.0661 74.0083 41.7655C73.8282 41.5972 73.7802 41.2726 73.6721 41.008C73.9483 40.8998 74.2125 40.6954 74.4886 40.7075C74.8609 40.7195 75.2331 40.8638 75.5813 41.008C77.9948 41.9338 80.3963 42.8716 82.7978 43.8094C83.4342 44.0619 84.0226 44.086 84.5029 43.5329C85.9678 41.8497 87.937 41.2485 90.0384 40.984C93.3884 40.5632 96.7505 40.1784 100.101 39.7937C101.794 39.6013 103.499 39.3488 105.168 39.8298C106.753 40.2746 108.35 40.4189 109.971 40.3828C111.208 40.3588 111.484 40.1784 111.976 38.928C111.772 38.8198 111.568 38.6996 111.364 38.6154C109.647 37.894 107.93 37.1727 106.212 36.4753C105.084 36.0184 105.084 36.0305 104.351 37.0284C104.243 37.1727 104.159 37.341 104.027 37.4492C103.859 37.5935 103.667 37.7017 103.487 37.8219C103.439 37.7858 103.391 37.7618 103.343 37.7257C103.451 37.1606 103.559 36.5955 103.655 36.0305C103.751 35.4654 103.547 35.2489 102.982 35.2489C102.478 35.2489 102.154 35.5255 101.974 35.9703C101.83 36.319 101.77 36.7038 101.662 37.0644C101.59 37.2809 101.494 37.4732 101.409 37.6776C101.337 37.6776 101.253 37.6897 101.181 37.6897C101.013 37.0885 100.809 36.4994 100.677 35.8982C100.557 35.3692 100.317 35.1287 99.7524 35.3211C99.3682 35.4413 98.9719 35.5135 98.5877 35.6096C94.6492 36.6196 90.9629 36.2829 87.7089 33.6018C87.3247 33.2892 87.1565 33.4936 86.9764 33.8182C86.7243 34.2751 86.4601 34.7199 86.1119 35.3331C85.9198 34.9243 85.8117 34.7199 85.7156 34.5035C85.5235 34.0827 85.3914 33.6378 85.1513 33.2411C84.5389 32.2071 83.3502 32.2191 82.7618 33.2651C82.5937 33.5657 82.4496 33.8663 82.2695 34.1548C81.9813 34.6117 81.6691 35.0686 81.3689 35.5255C81.2969 35.5135 81.2248 35.4894 81.1408 35.4774C81.0808 35.0205 80.9967 34.5516 80.9847 34.0947C80.9367 32.9886 80.9006 32.9405 79.7959 32.8082C79.0035 32.7121 78.1989 32.6519 77.4185 32.4956C76.8901 32.3874 76.734 31.7983 77.1183 31.4977C77.2864 31.3655 77.5625 31.3534 77.7907 31.3414C79.1475 31.3053 80.5284 31.4015 81.8612 31.2212C84.5629 30.8605 87.0365 31.2573 89.2819 32.8563C89.414 32.9525 89.5821 33.0006 89.7021 33.0487C90.1824 31.9546 90.6267 30.9326 91.107 29.9227C91.2031 29.7303 91.4192 29.5981 91.5753 29.4297C91.6954 29.6461 91.8875 29.8385 91.9235 30.067C92.1517 31.2212 92.3438 32.3874 92.5479 33.5537C92.632 34.0106 92.7761 34.4314 93.3404 34.4674C93.8928 34.5035 94.0849 34.0947 94.253 33.6739C94.5652 32.8924 94.8774 32.1109 95.2136 31.3534C95.3096 31.137 95.5018 30.9567 95.6459 30.7643C95.7059 30.7763 95.7539 30.8004 95.814 30.8124C95.85 31.0529 95.922 31.2933 95.922 31.5338C95.922 32.0748 95.874 32.6159 95.862 33.1569C95.838 34.0947 96.2823 34.4915 97.2068 34.3352C97.6151 34.263 98.0233 34.1428 98.4316 34.0226C99.6083 33.6739 100.809 33.5056 102.046 33.5777C104.063 33.698 105.852 34.4554 107.581 35.4173C110.787 37.1967 114.197 37.7257 117.788 37.1486C119.169 36.9202 120.549 36.7999 121.966 36.9803C124.296 37.2688 126.409 35.2249 126.241 32.9525C126.145 32.171 125.821 31.5578 125.04 30.9687ZM101.998 43.2564C101.986 43.3405 101.974 43.4367 101.974 43.5209C102.334 43.6531 102.682 43.8335 103.054 43.9177C105.024 44.3866 107.005 44.7713 108.95 45.3003C111.508 45.9977 114.053 46.7912 116.587 47.5847C116.851 47.6689 117.055 47.9695 117.283 48.1739C117.067 48.3903 116.863 48.6307 116.635 48.8351C116.551 48.9073 116.431 48.9554 116.311 48.9794C115.194 49.2559 114.077 49.6527 112.937 49.785C108.83 50.2539 104.712 50.6747 100.581 51.0474C95.3457 51.5163 90.1104 51.4682 84.8751 51.2157C82.0053 51.0835 79.1235 51.2157 76.2417 51.2277C76.0616 51.2277 75.8815 51.2879 75.7014 51.3239C75.7014 51.3961 75.7014 51.4682 75.6894 51.5524C76.1457 51.6245 76.5899 51.7447 77.0462 51.7688C80.2402 51.9972 83.4342 52.3459 86.6282 52.394C91.7314 52.4541 96.8346 52.4301 101.926 52.2016C107.509 51.9491 113.021 51.0234 118.484 49.8451C119.313 49.6647 120.129 49.3642 120.91 49.0275C121.57 48.7389 121.582 48.3662 121.006 47.9094C120.694 47.6569 120.345 47.4525 119.985 47.2841C117.764 46.2381 115.41 45.5769 113.021 45.0959C109.731 44.4347 106.429 43.8095 103.127 43.1842C102.754 43.1121 102.37 43.2203 101.998 43.2564ZM58.8789 50.7108C58.8789 50.6266 58.8669 50.5544 58.8669 50.4703C58.5787 50.3981 58.3025 50.302 58.0143 50.2659C54.8323 49.785 51.6383 49.3521 48.4683 48.8231C44.2897 48.1137 40.1351 47.2962 36.0646 46.0578C35.14 45.7692 34.2034 45.4206 33.3629 44.9517C32.9186 44.7112 32.4023 44.1581 32.3783 43.7253C32.3423 43.076 33.1227 42.9318 33.6631 42.7634C34.8879 42.3787 36.1246 42.0541 37.3494 41.6934C37.5655 41.6333 37.7576 41.489 37.9618 41.3808C37.9498 41.3086 37.9258 41.2245 37.9137 41.1523C37.5895 41.1042 37.2773 41.0081 36.9531 41.0201C35.176 41.0922 33.471 41.525 31.8259 42.1623C31.4057 42.3306 31.0094 42.5951 30.6612 42.8837C29.9528 43.4848 29.9288 44.1581 30.4931 44.8915C31.1775 45.7812 32.1381 46.178 33.1708 46.4906C38.382 48.0657 43.7134 49.1477 49.0687 50.0615C52.0106 50.5665 54.9524 51.0234 57.9423 50.831C58.2785 50.819 58.5787 50.7588 58.8789 50.7108ZM85.4995 47.5246C85.4995 47.5967 85.5115 47.6809 85.5115 47.7531C85.5956 47.7891 85.6916 47.8372 85.7757 47.8492C86.1359 47.8853 86.4961 47.9454 86.8444 47.9454C89.8582 47.9574 92.8841 47.9815 95.898 47.9334C97.8552 47.8973 99.8245 47.8853 101.722 47.3322C102.082 47.224 102.418 47.0437 102.766 46.8994C102.766 46.8152 102.754 46.7431 102.754 46.6589C102.322 46.4786 101.914 46.2141 101.457 46.1299C98.0233 45.4686 94.5892 44.8314 91.143 44.2182C90.8549 44.1701 90.5427 44.2543 90.2545 44.2784C90.2425 44.3625 90.2305 44.4347 90.2185 44.5188C90.6147 44.6631 90.999 44.8434 91.4072 44.9276C93.5085 45.3484 95.6098 45.7452 97.6991 46.154C98.1074 46.2381 98.5157 46.3704 98.9119 46.4906C98.8999 46.5507 98.8999 46.6109 98.8879 46.671C98.5637 46.7191 98.2395 46.7912 97.9153 46.8032C94.241 46.9715 90.5667 47.1158 86.8924 47.2841C86.4361 47.3082 85.9678 47.4404 85.4995 47.5246ZM60.9321 24.5844C62.1569 23.8149 63.2256 22.9733 64.1381 21.8912C63.2496 21.3622 61.9768 21.3381 61.4124 21.8191C60.8361 22.324 60.5719 23.6466 60.9321 24.5844ZM45.9828 39.2406C45.9588 39.1685 45.9348 39.0843 45.9107 39.0122C45.1303 38.904 44.3618 38.7717 43.5813 38.6996C43.4252 38.6876 43.161 38.892 43.101 39.0603C42.7768 39.8658 42.7888 40.7075 42.9089 41.7174C44.0016 40.8277 44.9982 40.0342 45.9828 39.2406ZM56.5494 28.5761C55.8049 28.1913 54.6522 28.1913 54.28 28.6001C53.7156 29.2013 54.0278 29.9347 53.9798 30.608C54.0398 30.632 54.0999 30.6681 54.1599 30.6922C54.9284 30.0068 55.7089 29.3215 56.5494 28.5761ZM51.3862 33.5657C51.3502 33.4695 51.3141 33.3854 51.2781 33.2892C50.9059 33.2892 50.5336 33.2771 50.1614 33.2892C49.1768 33.3373 48.7445 34.227 49.3689 35.2249C50.0533 34.6718 50.7138 34.1188 51.3862 33.5657ZM70.214 17.3104C69.6736 16.9497 69.2894 16.8415 68.9171 17.1661C68.5809 17.4667 68.5569 17.8394 68.8211 18.3684C69.2894 18.0197 69.6976 17.6951 70.214 17.3104Z" fill="#EB9916"/>
<path d="M18.6653 82.3918C19.7219 81.8388 20.7786 81.2857 21.8473 80.7446C24.4649 79.398 27.0585 78.0274 29.7002 76.7409C33.2424 75.0096 36.8687 75.2019 40.4949 76.4884C41.9118 76.9934 42.3321 78.0274 41.9598 79.8429C41.7677 80.8048 41.2634 81.2256 40.2908 81.2135C39.8945 81.2015 39.4983 81.1534 39.102 81.0813C36.8086 80.6725 34.6353 81.0572 32.558 82.0552C28.9197 83.8106 25.2934 85.602 21.6791 87.3935C20.9467 87.7542 20.7185 88.2231 20.9107 88.9565C22.2075 93.7898 21.9193 98.575 20.5624 103.36C19.5658 106.847 18.7613 110.382 17.9448 113.917C17.5726 115.516 17.4405 117.163 17.8007 118.81C18.1609 120.457 19.0375 121.744 20.3703 122.742C23.4202 125.026 26.7823 125.567 30.4807 124.725C38.946 122.802 47.4233 120.986 55.9006 119.111C59.803 118.245 63.6694 117.211 67.5959 116.442C73.4676 115.299 79.3873 114.422 85.343 113.929C89.4376 113.592 93.5201 113.303 97.6267 113.472C102.73 113.676 107.701 114.698 112.648 115.912C118.484 117.343 123.815 119.916 128.966 122.922C130.467 123.8 132.016 124.605 133.469 125.567C134.214 126.06 134.85 126.769 135.378 127.503C136.003 128.356 135.895 129.054 135.102 129.739C134.346 130.376 133.517 130.978 132.641 131.41C131.5 131.975 130.275 132.384 129.074 132.829C127.838 133.286 126.577 133.274 125.388 132.733C123.347 131.807 121.354 130.797 119.312 129.871C112.696 126.866 105.792 124.858 98.5633 123.98C91.5629 123.126 84.5505 123.054 77.5381 123.535C70.6458 124.016 63.9336 125.471 57.3054 127.407C52.1062 128.922 46.8349 130.232 41.4675 131.026C35.5478 131.915 29.6401 132.108 23.7564 130.725C18.4491 129.487 14.0304 126.709 10.272 122.838C8.57895 121.094 8.06262 118.954 8.87913 116.67C9.57557 114.722 10.5122 112.847 11.3887 110.959C12.9257 107.641 14.7868 104.466 15.9275 100.968C17.0322 97.5651 17.5366 94.1024 16.8161 90.5556C16.696 89.9785 16.7801 89.1849 16.0116 89.0286C15.111 88.8483 14.2225 89.0527 13.6701 89.8823C12.8656 91.0846 12.0611 92.2749 11.3647 93.5373C8.56694 98.6472 5.80521 103.781 3.03147 108.903C2.80333 109.324 2.53917 109.733 2.21496 110.081C1.71065 110.622 1.19432 110.658 0.605956 110.274C0.0175875 109.889 -0.150518 109.48 0.137663 108.783C0.629971 107.556 1.17031 106.354 1.69864 105.14C3.73992 100.463 5.6251 95.7135 8.07463 91.2168C8.43486 90.5435 8.79508 89.8702 9.11928 89.1849C9.41947 88.5477 9.3114 88.199 8.69902 87.8263C7.93054 87.3574 7.10202 86.9847 6.38157 86.4557C5.07275 85.5058 4.6645 84.027 5.33692 82.8247C6.00934 81.6344 7.15005 81.1775 8.43486 81.0212C9.40746 80.9009 10.3921 80.8288 11.3647 80.8048C12.4214 80.7807 13.0577 80.2757 13.514 79.362C15.051 76.3441 16.588 73.3384 18.1729 70.3446C19.1696 68.469 20.2022 66.6174 21.3189 64.8259C21.6791 64.2488 22.3035 63.7438 22.9159 63.4312C24.4769 62.6257 26.6382 63.6837 26.8664 65.4151C26.9625 66.1485 26.7223 67.0262 26.3741 67.6995C24.9572 70.4648 23.4442 73.17 21.9553 75.8993C20.8866 77.847 19.818 79.7948 18.7493 81.7426C18.6533 81.9109 18.5932 82.0912 18.5212 82.2596C18.5572 82.2956 18.6172 82.3437 18.6653 82.3918ZM8.48289 84.1712C9.09527 85.1692 10.6082 85.3976 11.3047 84.6883C11.4487 84.544 11.5448 84.2674 11.5208 84.063C11.5088 83.9548 11.1846 83.8226 10.9925 83.8226C10.5362 83.8106 10.0799 83.8226 9.6236 83.8827C9.25137 83.9428 8.89114 84.063 8.48289 84.1712Z" fill="#EB9916"/>
<path d="M61.4128 171.279C63.9464 171.375 66.492 171.363 69.0256 171.375C69.0376 171.303 69.0496 171.243 69.0616 171.171C68.8575 171.027 68.6533 170.882 68.4492 170.738C66.9363 169.632 67.0083 168.033 68.6173 167.131C69.3017 166.746 69.9982 166.398 70.7186 166.097C71.7393 165.664 72.3036 164.955 72.4117 163.837C72.4717 163.163 72.6158 162.49 72.7719 161.829C72.8199 161.637 73.0361 161.48 73.1802 161.3C73.3002 161.504 73.5164 161.721 73.5164 161.925C73.5164 163.031 73.5404 164.137 73.3843 165.219C73.3122 165.688 72.88 166.157 72.4957 166.506C72.0034 166.939 71.3911 167.227 70.8507 167.6C70.0822 168.105 69.9862 168.67 70.6106 169.343C70.9708 169.74 71.4271 170.041 71.8473 170.389C72.1475 170.63 72.4717 170.834 72.7359 171.099C73.6365 171.964 73.4683 172.734 72.2676 173.059C71.319 173.311 70.3584 173.551 69.3978 173.648C67.5486 173.828 65.6875 173.912 63.8383 174.044C63.4901 174.068 63.1419 174.117 62.7937 174.165C62.7817 174.213 62.7697 174.273 62.7577 174.321C63.0218 174.477 63.286 174.646 63.5622 174.79C64.6789 175.367 65.8196 175.92 66.9243 176.521C67.4286 176.798 68.065 177.086 67.9089 177.796C67.7648 178.469 67.0804 178.589 66.504 178.601C64.6068 178.649 62.7096 178.637 60.8124 178.613C55.7933 178.541 50.7742 178.457 45.743 178.361C45.2027 178.349 44.6624 178.313 44.134 178.204C43.9059 178.156 43.6177 177.916 43.5457 177.712C43.4976 177.579 43.7738 177.207 43.9659 177.158C44.6143 176.978 45.2747 176.834 45.9472 176.774C50.2939 176.377 54.6526 176.305 59.0233 176.473C59.5156 176.497 60.0199 176.437 60.5243 176.413C60.5363 176.353 60.5483 176.281 60.5483 176.221C60.08 176.016 59.6117 175.824 59.1554 175.607C57.9667 175.042 56.7779 174.477 55.5892 173.912C55.4331 173.84 55.253 173.732 55.1569 173.588C54.9888 173.323 54.7126 172.974 54.7727 172.734C54.8327 172.457 55.1809 172.109 55.4571 172.037C56.4177 171.784 57.4143 171.64 58.3989 171.459C58.7111 171.399 59.0233 171.363 59.3835 171.183C59.1314 171.015 58.8792 170.858 58.6271 170.69C58.1828 170.389 57.7866 170.041 57.8586 169.428C57.9306 168.826 58.3749 168.514 58.8792 168.37C59.5517 168.189 60.2481 168.069 60.9325 168.009C65.0751 167.66 67.8368 164.197 68.5693 160.819C68.7134 160.158 68.5333 159.953 67.8608 159.989C65.3273 160.098 62.7817 160.206 60.2481 160.374C57.1982 160.566 54.1363 160.795 51.0984 161.071C46.0312 161.528 41.0481 162.49 36.125 163.801C33.2432 164.57 30.3374 165.243 27.5036 166.157C24.0695 167.275 21.1036 169.175 18.9423 172.157C18.438 172.854 17.9817 173.588 17.5974 174.357C16.9851 175.559 17.1051 176.762 17.8616 177.892C18.6301 179.034 19.6988 179.804 20.8875 180.465C26.6511 183.699 32.895 185.442 39.343 186.669C44.8305 187.715 50.3539 188.196 55.9134 188.328C64.2946 188.508 72.6759 188.737 81.0571 188.749C84.7674 188.761 88.4897 188.364 92.188 188.027C96.0304 187.679 99.8728 187.246 103.691 186.753C107.57 186.26 111.328 185.298 115.062 184.12C117.968 183.206 120.598 181.835 123.095 180.152C124.92 178.926 125.581 177.279 125.161 175.127C124.452 171.387 122.243 169.079 118.653 167.937C114.126 166.494 109.527 165.352 104.844 164.606C98.492 163.584 92.104 162.731 85.728 161.805C84.7794 161.673 83.8308 161.504 82.8822 161.36C81.9096 161.216 81.6695 161.444 81.7295 162.418C81.9576 165.785 83.1464 168.682 85.8121 170.87C85.9802 171.003 86.0282 171.291 86.1243 171.508C85.8721 171.568 85.6079 171.724 85.3798 171.688C84.2391 171.471 83.4826 170.678 82.8462 169.788C82.4379 169.223 82.0297 168.622 81.8136 167.973C80.865 165.256 79.7603 162.562 79.1479 159.761C78.6316 157.344 78.5475 154.783 78.5595 152.295C78.5956 147.113 78.7997 141.919 78.9558 136.737C79.0278 134.536 79.0879 132.324 79.244 130.136C79.34 128.861 79.6282 127.611 79.8443 126.349C79.9284 125.868 80.2286 125.627 80.7329 125.663C81.2252 125.687 81.5614 125.928 81.5854 126.421C81.6094 127.238 81.5734 128.056 81.5374 128.873C81.3092 134.031 81.0211 139.201 80.853 144.359C80.7329 148.086 80.7689 151.814 80.7449 155.541C80.7449 155.901 80.7329 156.262 80.7449 156.623C80.7809 157.861 81.0931 158.234 82.3179 158.39C84.9355 158.727 87.5531 159.064 90.1828 159.352C97.8676 160.194 105.468 161.468 112.937 163.512C115.11 164.101 117.308 164.666 119.445 165.4C121.654 166.169 123.636 167.396 125.293 169.067C127.934 171.712 128.847 174.934 128.078 178.553C127.742 180.128 127.142 181.655 126.517 183.146C125.749 184.974 124.332 186.248 122.555 187.078C118.737 188.881 114.726 190.155 110.608 190.997C106.501 191.839 102.346 192.476 98.1918 193.065C94.4935 193.594 90.7712 193.967 87.0488 194.352C85.1036 194.556 83.1464 194.724 81.1892 194.76C76.074 194.857 70.9468 195.025 65.8316 194.869C60.5002 194.7 55.1689 194.291 49.8496 193.786C43.3775 193.185 36.9775 192.019 30.6376 190.552C25.0301 189.254 20.2151 186.452 15.9284 182.665C14.4395 181.355 13.3348 179.779 12.9505 177.784C12.4822 175.319 13.2147 173.167 14.6436 171.171C15.9764 169.307 17.8256 168.081 19.7828 167.023C24.7779 164.318 30.0973 162.49 35.6087 161.18C41.3483 159.809 47.1599 158.739 53.0316 158.162C57.8226 157.693 62.6376 157.428 67.4526 157.092C69.0256 156.984 69.5059 156.647 69.662 155.072C69.8901 152.703 70.0822 150.323 70.1903 147.942C70.3704 144.059 70.4665 140.175 70.5865 136.292C70.6706 133.611 70.1663 130.989 69.8181 128.344C69.758 127.863 69.662 127.395 69.662 126.914C69.662 126.673 69.8061 126.264 69.9622 126.228C70.2263 126.156 70.5745 126.264 70.8267 126.409C71.0068 126.505 71.1029 126.793 71.1869 127.01C72.6038 130.485 73.1441 134.14 73.2762 137.867C73.4804 143.83 73.1562 149.758 72.2076 155.649C71.6912 158.859 70.8867 161.997 69.2057 164.847C67.5486 167.66 65.2072 169.656 62.1333 170.786C61.8811 170.882 61.6289 171.003 61.3768 171.111C61.4008 171.099 61.4008 171.183 61.4128 171.279Z" fill="#EB9916"/>
<path d="M104.075 89.173C104.603 88.2592 105.144 87.3334 105.684 86.4076C106.897 84.3036 108.086 82.1995 109.322 80.1195C110.043 78.8931 110.955 77.8351 112.3 77.258C113.357 76.8011 113.909 77.1377 113.885 78.2799C113.861 78.9773 113.741 79.7347 113.429 80.3599C112.288 82.6804 111.076 84.9528 109.863 87.2372C108.194 90.3873 106.477 93.5133 104.82 96.6634C104.495 97.2766 104.303 97.9619 104.135 98.6352C103.967 99.3326 104.267 99.8255 104.964 100.006C106.273 100.343 107.485 100.222 108.554 99.2725C111.796 96.3508 114.774 93.2128 117.091 89.4856C117.716 88.4756 118.64 88.2231 119.733 88.3554C120.453 88.4395 121.006 88.9926 120.994 89.726C120.982 90.2911 120.85 90.8682 120.706 91.4333C120.285 93.0444 119.805 94.6315 119.385 96.2426C119.241 96.8197 119.145 97.4209 119.121 98.022C119.073 98.8757 119.421 99.537 120.225 99.9097C121.114 100.331 122.038 100.475 122.951 100.054C124.044 99.561 125.124 99.032 126.169 98.4429C127.082 97.9259 127.67 97.1323 127.838 96.0743C128.474 92.1667 130.131 88.6319 131.993 85.1813C134.598 80.3599 138.176 76.3322 142.331 72.8094C143.64 71.7032 145.069 72.076 145.657 73.6871C146.558 76.1638 146.354 78.6406 145.321 81.0092C142.367 87.8624 137.876 93.4532 131.524 97.4449C130.204 98.2745 129.915 98.9719 130.216 100.523C130.636 102.723 131.068 103.132 133.265 102.867C134.826 102.675 136.351 102.206 137.888 101.857C139.257 101.557 140.626 101.256 141.983 100.956C144.084 100.487 146.005 101.04 147.903 101.93C149.295 102.579 149.235 103.108 148.431 104.166C148.035 104.695 147.506 105.176 146.966 105.561C146.69 105.753 146.21 105.789 145.849 105.729C144.456 105.476 143.076 105.104 141.683 104.875C140.086 104.623 138.537 104.923 137.036 105.513C135.403 106.162 133.71 106.534 131.993 106.054C130.996 105.777 130.011 105.308 129.123 104.755C128.126 104.13 127.658 103.096 127.514 101.93C127.382 100.908 127.142 100.799 126.157 101.136C124.62 101.653 123.107 102.242 121.534 102.615C120.165 102.94 118.748 102.795 117.379 102.374C116.011 101.954 115.29 100.98 115.038 99.5971C114.918 98.9478 114.798 98.3106 114.666 97.5531C114.354 97.7335 114.113 97.8537 113.897 97.998C112.084 99.2003 110.295 100.451 108.434 101.605C107.665 102.086 106.777 102.435 105.9 102.663C104.555 103.012 103.367 102.555 102.442 101.509C102.082 101.1 101.722 100.679 101.482 100.21C101.181 99.6332 100.857 99.6572 100.341 99.8977C98.8759 100.583 97.399 101.256 95.898 101.869C93.9528 102.675 91.9235 102.014 90.7348 100.258C90.0984 99.3085 89.9663 98.2745 90.2545 97.2045C90.6868 95.6054 91.1791 94.0183 91.7074 92.4433C91.8995 91.8902 91.7434 91.6978 91.2511 91.5295C89.7862 91.0245 89.7142 91.0606 89.2699 92.5515C88.0451 96.6634 85.7157 99.9337 81.9453 102.05C79.0515 103.673 76.2898 102.747 74.8249 99.7414C74.4406 98.9478 74.2125 98.0701 73.8763 97.1564C73.7322 97.2766 73.5761 97.3968 73.444 97.5171C71.847 98.9719 70.262 100.451 68.641 101.869C67.6323 102.759 66.5397 103.577 65.1468 103.733C63.9941 103.865 62.9254 103.613 62.0368 102.783C60.9802 101.785 60.5839 101.821 59.5153 102.807C58.3025 103.937 57.0657 105.044 55.829 106.162C55.2646 106.667 54.9524 106.679 54.4721 106.246C53.8837 105.729 53.7997 105.26 54.1959 104.671C55.1926 103.192 56.2012 101.725 57.1978 100.246C58.4226 98.4429 59.083 96.4109 59.4552 94.2828C59.4672 94.1866 59.4552 94.0905 59.4552 93.8981C58.6507 93.9822 57.8702 94.0063 57.1138 94.1506C56.9096 94.1866 56.6575 94.5594 56.6335 94.7878C56.4293 96.976 55.4928 98.8036 53.9918 100.367C52.2507 102.194 50.4976 104.01 48.4083 105.452C46.3791 106.859 43.5933 106.895 41.8402 105.464C40.2072 104.118 39.895 102.278 40.3273 100.343C40.8556 97.9499 42.1524 95.9661 43.8094 94.1987C44.674 93.2849 45.5625 92.3832 46.4391 91.4814C47.2676 90.6398 47.1836 90.1468 46.1149 89.6298C44.5779 88.8844 42.9929 88.8002 41.4079 89.4254C40.4593 89.7982 39.4747 90.1228 38.6102 90.6518C37.3254 91.4333 36.4969 92.6477 36.0046 94.0664C35.6684 95.0283 35.3922 96.0142 35.128 97.0001C34.5036 99.2845 33.2188 101.208 31.9941 103.192C31.1655 104.539 30.2049 105.729 28.74 106.366C28.1156 106.643 27.4072 106.787 26.7228 106.799C25.594 106.823 25.0057 106.174 24.9817 105.032C24.9336 102.867 25.438 100.811 26.2905 98.8517C27.5993 95.8338 29.3644 93.1406 32.0061 91.1207C32.1141 91.0366 32.2342 90.9644 32.3423 90.8803C32.3303 90.8201 32.3062 90.76 32.2942 90.6879C31.982 90.6638 31.6698 90.6037 31.3577 90.6278C30.6252 90.6638 29.8807 90.8081 29.1483 90.7841C28.752 90.772 28.2957 90.5797 27.9835 90.3152C27.5393 89.9545 27.5753 89.4856 27.9595 89.0527C29.3404 87.4657 32.4263 87.117 34.0473 88.4876C34.9119 89.2211 35.6443 89.2812 36.5689 88.668C37.6136 87.9706 38.6582 87.2492 39.7869 86.6962C42.2485 85.4939 44.7941 85.2414 47.3877 86.3114C47.7119 86.4437 48.0241 86.6601 48.3003 86.8765C48.8046 87.2733 48.9727 87.8023 48.8286 88.4275C48.7565 88.7521 48.6605 89.0768 48.5284 89.5697C49.3569 89.3413 50.0534 89.1609 50.7618 88.9686C51.5903 88.7401 52.4068 88.4876 53.2474 88.3073C54.5081 88.0428 56.0571 88.5598 56.5374 90.207C56.8136 91.1568 57.474 91.6257 58.3145 91.6618C59.2871 91.6978 60.0676 91.2169 60.4399 90.3031C61.1723 88.4997 61.8567 86.6842 62.6132 84.8927C63.3937 83.0291 64.6665 81.5142 66.0113 80.0473C66.4436 79.5784 66.8158 79.5784 67.3442 79.9391C68.2567 80.5643 68.5089 81.3699 68.0286 82.3919C67.2601 84.027 66.4556 85.6381 65.6871 87.2613C65.423 87.8143 65.2068 88.3794 64.9667 88.9445C65.0147 88.9806 65.0627 89.0287 65.0988 89.0648C65.3749 88.9325 65.6511 88.8123 65.9153 88.656C67.4162 87.7422 68.9172 86.8044 70.4061 85.8786C71.4147 85.2534 72.0151 85.5059 72.2552 86.6601C72.3513 87.105 72.4354 87.5739 72.4233 88.0308C72.4113 88.8844 71.9791 89.5216 71.2346 89.9184C70.1179 90.5075 69.0012 91.0847 67.8725 91.6377C65.5671 92.7799 63.838 94.4391 62.9974 96.9159C62.6132 98.0461 62.9374 99.032 63.91 99.7053C64.9187 100.391 65.8552 100.343 66.8038 99.4769C70.0699 96.4951 73.3119 93.4893 76.578 90.5075C77.7547 89.4254 78.9674 88.3794 80.2042 87.3575C81.1768 86.5519 82.3055 86.059 83.5903 85.9507C84.8391 85.8425 85.9558 86.1551 86.9885 86.8765C88.0331 87.6099 89.1378 88.2712 90.1945 88.9926C91.5033 89.8823 92.8361 89.9304 94.205 89.1609C94.5532 88.9686 94.9134 88.7882 95.2496 88.5718C97.5431 87.0809 99.9446 87.1891 102.382 88.0909C102.946 88.2832 103.439 88.7401 104.075 89.173ZM86.9164 91.3251C86.9404 89.8823 86.3641 89.3533 85.1033 89.4375C84.3348 89.4976 83.6864 89.8102 83.098 90.2911C81.2249 91.8421 79.6399 93.6696 78.199 95.6294C77.4185 96.6875 77.5025 98.4669 78.3671 99.4408C78.5952 99.6933 78.9434 99.8977 79.2676 99.9818C80.1682 100.186 81.0568 100.054 81.7172 99.3566C82.8939 98.1303 84.0826 96.9039 85.1273 95.5813C86.1359 94.2949 86.8324 92.828 86.9164 91.3251ZM100.761 89.9184C100.389 90.0266 100.041 90.0747 99.7525 90.231C96.8106 91.9022 94.6733 94.2227 93.9408 97.6373C93.6526 98.9599 94.6132 99.8616 95.9221 99.5249C97.3509 99.1643 98.5397 98.3948 99.4162 97.2285C100.065 96.3749 100.665 95.4611 101.193 94.5233C101.734 93.5735 102.178 92.5635 102.598 91.5536C102.826 91.0125 102.586 90.5677 102.046 90.3392C101.626 90.1709 101.181 90.0507 100.761 89.9184ZM45.6106 103C46.0549 102.759 46.331 102.639 46.5712 102.483C48.7085 101.1 50.4976 99.3446 52.0826 97.3608C53.0552 96.1344 53.8477 94.8359 54.0999 93.2729C54.1959 92.6717 54.34 91.9984 53.7277 91.5536C53.1273 91.1207 52.4669 91.277 51.8425 91.5295C51.6383 91.6137 51.4462 91.7339 51.2781 91.8662C48.2882 94.3069 46.3791 97.4209 45.6226 101.208C45.5265 101.749 45.6106 102.302 45.6106 103ZM131.488 93.4412C131.548 93.4773 131.608 93.5254 131.668 93.5614C132.029 93.2368 132.425 92.9362 132.737 92.5635C134.154 90.8803 135.607 89.2331 136.952 87.4897C138.801 85.0971 140.458 82.5722 141.647 79.7708C141.959 79.0374 142.139 78.2799 142.019 77.4263C141.599 77.7389 141.19 78.0635 140.926 78.4843C137.864 83.2215 134.814 87.9706 131.776 92.7198C131.62 92.9362 131.572 93.2007 131.488 93.4412Z" fill="#EB9916"/>
<path d="M88.861 68.1805C88.4528 68.6614 88.0445 69.1423 87.6363 69.6353C87.4682 69.8397 87.3121 70.0441 87.144 70.2484C86.8077 70.6572 86.4715 70.6332 86.1473 70.2484C85.655 69.6713 85.1507 69.0942 84.6704 68.5051C84.5503 68.3488 84.4783 68.1564 84.3822 67.9881C84.2742 68.0482 84.1661 68.0963 84.058 68.1564C84.058 68.5412 84.046 68.9139 84.058 69.2986C84.106 70.3326 84.1661 71.3786 84.2381 72.4126C84.2742 72.9536 84.082 73.2061 83.5297 73.1701C83.1094 73.146 82.6892 73.158 82.2689 73.158C81.8726 73.158 81.6805 72.9777 81.6685 72.5809C81.5845 69.8998 81.4884 67.2186 81.3923 64.5375C81.3683 64.0565 81.5965 63.9724 82.0408 63.9123C83.4697 63.7199 84.5143 64.1648 85.2468 65.4512C85.559 65.9923 86.0393 66.4371 86.5316 67.0383C87.1079 66.3169 87.6243 65.6676 88.1646 65.0304C88.4408 64.7058 88.741 64.2249 89.0892 64.1648C89.7856 64.0565 90.5181 64.1527 91.2265 64.2489C91.3706 64.273 91.5387 64.6817 91.5387 64.9222C91.6108 66.9421 91.6468 68.962 91.6948 70.9819C91.7068 71.583 91.7669 72.1842 91.8149 72.7733C91.8389 73.1701 91.6828 73.3504 91.2745 73.3745C89.4014 73.4706 89.2813 73.3624 89.2333 71.5109C89.2093 70.5731 89.1612 69.6353 89.1252 68.6854C89.1132 68.5412 89.0772 68.3849 89.0532 68.2406C88.9691 68.2286 88.9211 68.2045 88.861 68.1805Z" fill="#EB9916"/>
<path d="M78.5221 67.435C78.5221 68.0963 78.5341 68.7576 78.5221 69.4189C78.462 71.9798 77.0572 73.3024 74.4876 73.2302C71.5217 73.1581 70.0808 71.7153 69.9247 68.5892C69.8527 67.1945 69.9007 65.7878 69.8647 64.3931C69.8527 63.8401 70.0808 63.6717 70.6092 63.6717C72.4583 63.6597 72.4463 63.6477 72.4703 65.4993C72.4943 66.7617 72.5064 68.0242 72.6144 69.2746C72.7225 70.5971 73.599 71.2344 74.7758 70.9458C75.3521 70.8015 75.7364 70.4529 75.8684 69.8757C75.9645 69.4669 76.0125 69.0461 76.0005 68.6253C75.9525 67.3268 75.8804 66.0283 75.7964 64.7298C75.7484 63.9483 75.8684 63.804 76.6489 63.816C78.5101 63.8521 78.378 63.6357 78.45 65.5714C78.4741 66.1966 78.45 66.8098 78.45 67.435C78.4861 67.435 78.4981 67.435 78.5221 67.435Z" fill="#EB9916"/>
<path d="M63.6694 70.561C64.0776 70.5971 64.3418 70.6452 64.6179 70.6452C65.3984 70.6331 66.1789 70.6211 66.9594 70.585C67.4517 70.561 67.6918 70.7173 67.7279 71.2463C67.8359 72.9055 67.8479 72.9055 66.1909 72.8815C64.4498 72.8574 62.7088 72.8214 60.9797 72.7853C60.1152 72.7733 59.875 72.3765 60.3313 71.595C60.8236 70.7293 61.3759 69.8877 61.9043 69.0461C62.4806 68.1323 63.069 67.2306 63.6574 66.3168C63.7414 66.1845 63.7894 66.0403 63.9335 65.7637C62.9369 65.7397 62.0364 65.7397 61.1598 65.6796C60.8356 65.6555 60.2833 65.5714 60.2352 65.403C60.1032 64.8981 60.1392 64.345 60.1752 63.816C60.1752 63.7318 60.4634 63.6116 60.6195 63.6116C62.7568 63.6236 64.8941 63.6597 67.0314 63.6957C67.4157 63.7078 67.5358 63.9482 67.4277 64.2608C67.3196 64.5855 67.1755 64.886 66.9954 65.1746C66.0588 66.6895 65.1102 68.2044 64.1737 69.7073C64.0056 69.9478 63.8855 70.1883 63.6694 70.561Z" fill="#EB9916"/>
<path d="M66.2393 105.428C66.3233 105.308 66.3954 105.08 66.5394 105.032C66.6835 104.983 66.9357 105.056 67.0678 105.176C67.2479 105.344 67.368 105.597 67.5 105.813C69.5053 109.131 72.3631 110.995 76.3136 110.947C78.7511 110.923 80.7444 109.961 82.1733 107.965C82.9537 106.871 83.6622 105.741 84.4187 104.635C84.6348 104.334 84.875 103.986 85.1992 103.841C85.4753 103.721 85.9196 103.769 86.1838 103.925C86.3039 103.986 86.2918 104.539 86.1598 104.779C85.6915 105.657 85.1872 106.534 84.6228 107.352C83.5661 108.855 82.2573 110.117 80.6963 111.091C78.9432 112.185 77.0821 112.678 74.9807 112.257C72.5072 111.765 70.2138 110.923 68.3406 109.156C67.404 108.266 66.7556 107.208 66.3713 105.981C66.3113 105.813 66.2873 105.657 66.2393 105.428Z" fill="#EB9916"/>
<path d="M41.9964 56.2053C42.2005 56.1693 42.3446 56.1572 42.4767 56.1091C44.602 55.3517 46.3311 57.2754 46.0789 59.3314C45.8628 60.9906 44.4939 62.3852 42.9209 62.4213C41.6721 62.4574 40.8316 61.8081 40.5434 60.5818C40.5194 60.4856 40.4834 60.3894 40.4954 60.2932C40.5795 59.1751 40.1832 58.5739 38.9825 58.2974C37.7457 58.0088 37.4095 56.542 38.298 55.6162C38.7543 55.1353 39.4027 54.7625 40.0271 54.5221C40.8797 54.1974 41.48 54.6062 41.7682 55.4839C41.8282 55.7124 41.9003 55.9288 41.9964 56.2053ZM41.3479 59.3314C41.372 60.678 42.1044 61.3633 43.2812 61.1348C44.2057 60.9545 44.7701 60.3774 44.9742 59.4877C45.1903 58.5619 45.0583 57.6722 44.3258 57.0109C44.1097 56.8185 43.6894 56.7223 43.4012 56.7704C42.0684 57.0229 41.3239 57.9848 41.3479 59.3314ZM40.8436 56.2775C40.8797 56.2534 40.9277 56.2294 40.9637 56.2053C40.7836 55.9288 40.6395 55.4479 40.4114 55.4118C40.1112 55.3637 39.7269 55.6042 39.4508 55.8206C39.0545 56.1452 38.7303 56.6141 39.1145 57.1071C39.3067 57.3475 39.7509 57.5639 40.0511 57.5279C40.6275 57.4557 40.7596 56.9147 40.8436 56.3977C40.8556 56.3496 40.8436 56.3135 40.8436 56.2775Z" fill="#EB9916"/>
<path d="M119.469 83.8586C119.529 82.9328 120.105 81.9469 120.802 81.0933C121.51 80.2156 122.363 79.4461 123.215 78.7127C123.552 78.4361 124.092 78.2919 124.548 78.2798C125.317 78.2438 125.653 78.857 125.305 79.5423C125.088 79.9631 124.812 80.3719 124.548 80.7686C123.816 81.8628 123.275 83.017 123.107 84.3516C123.011 85.1571 121.906 85.8304 120.922 85.7342C119.949 85.638 119.457 85.085 119.469 83.8586Z" fill="#EB9916"/>
<path d="M109.526 67.0864C109.01 66.9541 108.47 66.8579 107.977 66.6655C106.969 66.2568 106.548 65.3189 106.789 64.0685C107.101 62.3973 107.977 61.0627 109.382 60.1009C110.271 59.4877 111.219 59.5959 112.108 60.1129C112.72 60.4616 112.972 61.0627 112.876 61.7601C112.636 63.4313 111.976 64.9582 111.087 66.377C110.739 66.906 110.163 67.0262 109.526 67.0864ZM107.881 64.1046C107.869 64.8621 108.374 65.5113 109.106 65.6676C109.802 65.8239 110.643 65.355 110.907 64.5976C111.195 63.768 111.423 62.9143 111.628 62.0607C111.832 61.207 111.484 60.8463 110.607 60.9786C109.31 61.1709 107.893 62.7821 107.881 64.1046Z" fill="#EB9916"/>
<path d="M85.3549 111.356C84.7545 111.235 84.5384 110.971 84.6945 110.49C84.8026 110.177 84.9587 109.853 85.1508 109.588C86.8198 107.292 88.5008 105.007 90.1939 102.723C90.35 102.507 90.5661 102.278 90.8063 102.182C91.0344 102.098 91.4306 102.074 91.5507 102.206C91.7068 102.374 91.7068 102.735 91.6828 102.999C91.6708 103.18 91.5027 103.348 91.3946 103.516C89.7376 105.849 88.0806 108.181 86.3875 110.49C86.1354 110.827 85.7031 111.067 85.3549 111.356Z" fill="#EB9916"/>
<path d="M61.6875 104.911C61.8316 104.743 61.9397 104.49 62.1198 104.406C62.2999 104.334 62.6121 104.358 62.7682 104.466C62.9963 104.635 63.1884 104.899 63.3205 105.152C64.6173 107.725 65.9021 110.298 67.1989 112.871C67.3911 113.243 67.5472 113.616 67.1149 113.941C66.7306 114.229 66.3704 114.229 66.0582 113.856C65.8781 113.64 65.734 113.4 65.6139 113.147C64.4012 110.682 63.2004 108.23 62.0117 105.765C61.8796 105.512 61.8076 105.248 61.6875 104.911Z" fill="#EB9916"/>
<path d="M96.1613 76.1158C96.1493 74.7211 96.6537 74.0478 97.5902 73.9276C98.6949 73.7833 99.5475 74.3364 99.7516 75.4305C100.016 76.8372 99.5475 78.0756 98.7189 79.1817C98.3467 79.6746 97.9505 79.6506 97.5062 79.1817C96.6056 78.2439 96.1974 77.1017 96.1613 76.1158ZM98.0585 77.1979C98.5268 76.4284 98.4067 75.8152 97.7343 75.5146C97.29 76.2 97.3861 76.6929 98.0585 77.1979Z" fill="#EB9916"/>
<path d="M51.7464 68.962C52.9832 68.95 53.9678 70.2365 53.6436 71.4388C53.5835 71.6672 53.4995 71.8957 53.4034 72.1121C52.671 73.6029 51.182 73.9997 49.7892 73.0739C49.2248 72.7012 49.1167 72.1 49.1408 71.4869C49.1768 70.0802 50.3415 68.974 51.7464 68.962ZM52.5869 70.9819C52.5629 70.9699 52.5389 70.9578 52.5149 70.9578C52.5029 70.8136 52.5389 70.6573 52.4788 70.5491C52.3107 70.2605 52.1426 69.8036 51.9145 69.7676C51.6263 69.7074 51.194 69.9239 50.9539 70.1523C50.5336 70.5851 50.4015 71.1863 50.6297 71.7634C50.7257 72.0159 51.0259 72.3165 51.2661 72.3525C51.5663 72.3886 51.9865 72.2443 52.1907 72.0159C52.4068 71.7514 52.4548 71.3306 52.5869 70.9819Z" fill="#EB9916"/>
<path d="M78.7381 79.2538C78.7261 80.1555 77.8615 80.8288 76.9009 80.6846C75.6041 80.4922 74.4394 79.1095 74.4754 77.799C74.4994 76.9454 75.2799 76.4164 76.3606 76.5486C77.3932 76.6448 78.7501 78.2078 78.7381 79.2538ZM77.6814 78.8811C77.2371 78.4362 76.949 78.0996 76.5887 77.8471C76.5167 77.799 76.0724 78.1116 75.9884 78.328C75.8683 78.6286 76.5407 79.326 76.8889 79.2899C77.0931 79.2658 77.2852 79.0975 77.6814 78.8811Z" fill="#EB9916"/>
<path d="M102.177 67.4952C100.76 67.4952 100.064 66.389 100.688 65.2348C100.976 64.6938 101.36 64.1888 101.781 63.744C102.225 63.2631 102.849 63.1428 103.498 63.239C104.014 63.3232 104.386 63.5997 104.506 64.1287C104.747 65.1627 103.57 67.1585 102.561 67.435C102.405 67.4831 102.237 67.4831 102.177 67.4952ZM103.366 64.5736C103.21 64.5495 102.957 64.4293 102.873 64.5134C102.441 64.8862 102.045 65.307 101.673 65.7278C101.589 65.8119 101.577 66.0885 101.637 66.1486C101.757 66.2448 101.961 66.2808 102.117 66.2568C102.621 66.1486 103.342 65.2348 103.366 64.5736Z" fill="#EB9916"/>
<path d="M103.75 70.2965C103.738 69.3347 104.519 68.1804 105.419 67.8558C105.959 67.6634 106.944 68.0602 107.352 68.6614C107.689 69.1543 107.641 69.7314 107.208 70.2605C106.716 70.8737 106.092 71.2824 105.335 71.4868C104.483 71.7273 103.774 71.1863 103.75 70.2965ZM105.083 70.0681C105.179 70.1282 105.263 70.2004 105.359 70.2605C105.563 69.9719 105.767 69.6834 105.971 69.3948C105.875 69.3347 105.791 69.2625 105.695 69.2024C105.479 69.491 105.275 69.7795 105.083 70.0681Z" fill="#EB9916"/>
<path d="M52.2734 63.4072C51.4689 63.4313 51.2648 62.8662 51.2047 61.736C51.1807 61.3512 51.4329 60.8823 51.685 60.5577C52.2734 59.8363 53.4261 59.7762 54.0385 60.3533C54.6389 60.9304 54.6149 61.9043 53.9665 62.6137C53.5462 63.0946 53.0299 63.4072 52.2734 63.4072ZM52.7657 60.8222C52.5496 61.2069 52.3815 61.4234 52.2974 61.6638C52.2734 61.736 52.4895 61.8923 52.5856 62.0125C52.7657 61.7961 52.9698 61.6037 53.1019 61.3633C53.1379 61.3152 52.9578 61.1228 52.7657 60.8222Z" fill="#EB9916"/>
<path d="M91.5998 80.925C90.9274 80.925 90.3871 80.5884 90.255 80.1195C90.0989 79.6145 90.327 78.9773 90.8914 78.7128C91.3237 78.5084 91.84 78.3882 92.3083 78.4122C93.0047 78.4483 93.3769 78.8571 93.4129 79.3741C93.449 79.9632 93.0527 80.5643 92.4644 80.7447C92.1642 80.8409 91.84 80.8769 91.5998 80.925ZM91.804 80.3239C92.0201 80.0594 92.2482 79.9031 92.2842 79.7107C92.3083 79.6025 91.96 79.2899 91.852 79.326C91.6358 79.3861 91.4557 79.6265 91.2636 79.7828C91.4077 79.9271 91.5638 80.0834 91.804 80.3239Z" fill="#EB9916"/>
<path d="M77.1413 28.1672C75.6764 28.2153 74.6798 27.4338 73.9473 26.2796C73.6111 25.7505 73.2869 25.6544 72.7346 25.9189C72.3023 26.1233 71.834 26.2796 71.3657 26.3277C71.1496 26.3517 70.7533 26.1233 70.6933 25.9309C70.6333 25.7385 70.8374 25.3658 71.0295 25.2215C71.4017 24.957 71.846 24.8007 72.2543 24.6083C72.8306 24.3438 73.0708 23.923 73.0348 23.2738C73.0108 22.7207 73.0348 22.1436 73.1789 21.6146C73.5991 20.0996 75.004 19.0777 76.577 19.0536C77.7297 19.0416 78.8344 19.2941 79.723 20.0516C80.5275 20.7369 81.296 20.7369 82.1365 20.2439C82.5808 19.9914 83.001 19.9554 83.3973 20.3401C83.7815 20.7249 83.7815 21.2058 83.3372 21.5184C83.013 21.7468 82.6648 21.9512 82.3046 22.1195C81.9083 22.3239 81.7402 22.6125 81.8363 23.0453C82.5087 25.9189 79.771 28.2514 77.1413 28.1672ZM80.1192 22.9612C79.5789 23.1415 79.0986 23.3219 78.5943 23.4541C78.246 23.5503 78.174 23.7427 78.222 24.0793C78.2821 24.4881 78.3301 24.9089 78.3421 25.3297C78.3421 25.5101 78.258 25.7746 78.138 25.8347C78.0179 25.8948 77.7537 25.7866 77.6216 25.6784C77.3455 25.45 77.0813 25.1975 76.8652 24.9089C76.4809 24.404 76.0246 24.3078 75.4363 24.5242C74.8119 24.7526 74.7518 24.8368 75.1121 25.4019C76.4689 27.518 78.8224 26.8326 79.831 25.2095C80.2393 24.5482 80.4915 23.8389 80.1192 22.9612ZM74.932 22.9852C76.2528 22.7568 77.4776 22.2999 78.6063 21.5905C78.0659 20.6888 76.8532 20.268 76.0006 20.6407C75.1841 20.9773 74.6918 22.0234 74.932 22.9852Z" fill="#EB9916"/>
<path d="M105.948 28.2154C105.731 28.1072 105.503 28.0712 105.395 27.9389C104.567 27.0011 103.462 26.8207 102.309 26.7246C101.721 26.6765 101.109 26.5803 100.568 26.3518C100.136 26.1715 99.7277 25.8108 99.4035 25.4501C98.7071 24.6806 98.2748 24.5363 97.3022 24.8369C96.99 24.9331 96.6418 24.9812 96.3056 24.9932C96.1975 24.9932 96.0294 24.8369 95.9814 24.7167C95.9574 24.6566 96.0894 24.4642 96.1975 24.4161C96.8459 24.1155 97.4943 23.7428 98.1787 23.5745C98.8752 23.4062 99.5116 23.851 99.8718 24.38C100.652 25.5343 101.697 25.7868 102.982 25.7146C104.327 25.6305 105.515 26.0513 106.356 27.1574C106.488 27.3257 106.536 27.6503 106.476 27.8668C106.428 28.0351 106.14 28.1072 105.948 28.2154Z" fill="#EB9916"/>
<path d="M64.4131 30.9807C64.4731 30.7042 64.293 30.1271 64.9054 30.0429C65.5058 29.9708 65.5058 30.5359 65.6379 30.9446C66.0701 32.2071 66.5144 33.4695 66.9827 34.7199C67.1868 35.261 67.475 35.766 67.6671 36.319C67.8472 36.836 67.499 37.1727 66.9827 36.9683C66.6705 36.836 66.3583 36.5956 66.1662 36.319C65.0375 34.768 64.4371 33.0367 64.4131 30.9807Z" fill="#EB9916"/>
<path d="M121.965 33.8783C121.821 34.0947 121.689 34.5035 121.461 34.5876C121.257 34.6477 120.825 34.3953 120.681 34.1668C120.26 33.5176 119.924 32.8082 119.588 32.0988C119.48 31.8824 119.468 31.5939 119.492 31.3414C119.54 30.7883 120.044 30.5238 120.476 30.8604C120.849 31.161 121.209 31.5458 121.413 31.9786C121.665 32.5317 121.761 33.1569 121.965 33.8783Z" fill="#EB9916"/>
<path d="M70.8017 38.4952C70.6336 38.6395 70.3934 38.9401 70.0932 39.0483C69.781 39.1565 69.2167 38.5673 69.2287 38.2067C69.2527 37.7257 69.5889 37.5694 70.0092 37.5574C70.4895 37.5454 70.7536 37.7979 70.8017 38.4952Z" fill="#EB9916"/>
<path d="M90.83 23.1295C90.4458 22.7568 90.0615 22.5524 89.9775 22.2518C89.8694 21.9031 90.2296 21.7228 90.6019 21.7348C91.0221 21.7468 91.3943 21.9031 91.3823 22.36C91.3703 22.5644 91.0941 22.7688 90.83 23.1295Z" fill="#EB9916"/>
</svg>
