<svg width="57" height="57" viewBox="0 0 57 57" fill="none" xmlns="http://www.w3.org/2000/svg">
<path d="M21.8812 15.1287C31.3797 15.2584 38.9059 16.0629 46.0168 19.1513C47.4961 19.8001 48.1709 20.8122 47.9632 22.1358C47.7816 23.3296 46.8732 24.2898 45.6275 24.3936C45.1344 24.4455 44.5894 24.3417 44.1223 24.1601C35.5321 20.5008 26.5007 20.2672 17.3655 20.7863C15.9381 20.8641 14.5367 21.0717 13.1093 21.1755C11.4224 21.2794 10.2286 20.371 10.021 18.8917C9.83933 17.4384 10.8515 16.0889 12.4865 15.9332C16.2236 15.5439 19.9607 15.2844 21.8812 15.1287Z" fill="#EB9916"/>
<path d="M22.1407 25.5355C30.4974 25.6653 37.4007 26.3141 43.8628 29.1948C44.6154 29.5321 45.3421 30.2588 45.7314 30.9855C46.2245 31.9198 45.8871 32.9319 45.0826 33.6845C44.2521 34.489 43.2399 34.6447 42.2018 34.2036C33.43 30.5702 24.2948 30.5443 15.0558 31.4786C14.7184 31.5045 14.355 31.5305 14.0177 31.5305C12.5124 31.5305 11.3965 30.5962 11.2408 29.1948C11.111 27.7414 11.9155 26.4957 13.4208 26.3141C16.7686 25.9507 20.1165 25.7172 22.1407 25.5355Z" fill="#EB9916"/>
<path d="M23.3086 40.8993C20.3241 41.1069 17.7289 41.2626 15.1337 41.4702C13.2911 41.6259 12.0194 40.7436 11.8118 39.1605C11.6301 37.6293 12.7461 36.3836 14.5368 36.1759C22.6858 35.2676 30.7569 35.3195 38.6464 37.9667C39.451 38.2521 40.2814 38.5636 41.06 38.9009C42.5652 39.5757 43.1621 41.055 42.5912 42.4305C42.0202 43.78 40.5669 44.299 38.9838 43.8319C36.3107 43.0274 33.6377 42.145 30.8867 41.6259C28.2915 41.1328 25.5924 41.0809 23.3086 40.8993Z" fill="#EB9916"/>
<circle cx="28.5" cy="28.5" r="27" stroke="#EB9916" stroke-width="3"/>
</svg>
